<svg width="24" height="24" fill="none" xmlns="http://www.w3.org/2000/svg"><g clip-path="url(#clip0_5936_74366)"><path d="M7.766 1.023c.547-.086 1.1.077 1.59.336.978.518 1.903 1.522 2.446 2.468.478.834.74 1.829.888 2.67.44-.878.993-1.775 1.606-2.503.532-.631 1.145-1.179 1.811-1.451.7-.285 1.451-.262 2.149.245.333.243.576.54.683.898.109.359.063.716-.068 1.04-.25.622-.838 1.207-1.506 1.72-.733.561-1.648 1.096-2.566 1.554H22v5h-1v10H3V13H2V8h8.16c-.842-.455-1.701-.997-2.414-1.608-.662-.569-1.236-1.225-1.532-1.955-.306-.753-.307-1.57.156-2.378.341-.595.823-.945 1.396-1.036zM3.947 22h16.106v-9H3.947v9zM2.87 12h18.262V9H2.869v3zm5.052-9.99c-.229.037-.47.172-.684.546-.297.518-.298 1.01-.097 1.506.21.519.651 1.05 1.256 1.57.987.846 2.313 1.574 3.445 2.09a12.595 12.595 0 00-.08-.7c-.124-.862-.366-1.895-.826-2.698-.472-.822-1.273-1.671-2.046-2.08-.386-.205-.714-.273-.968-.233zm9.747 1.587c-.384-.28-.765-.299-1.183-.128-.45.183-.937.591-1.425 1.17-.71.843-1.343 1.96-1.791 2.972 1.2-.517 2.53-1.224 3.488-1.959.638-.489 1.042-.938 1.186-1.298.067-.166.068-.287.04-.38-.03-.096-.108-.227-.315-.377z" fill="#2B2A29"/></g><defs><clipPath id="clip0_5936_74366"><path fill="#fff" d="M0 0h24v24H0z"/></clipPath></defs></svg>