<svg width="40" height="40" fill="none" xmlns="http://www.w3.org/2000/svg"><mask id="a" style="mask-type:alpha" maskUnits="userSpaceOnUse" x="0" y="0" width="40" height="40"><path fill="#D9D9D9" d="M0 0h40v40H0z"/></mask><g mask="url(#a)"><path d="M31.667 15c.472 0 .868-.16 1.187-.48.32-.32.48-.715.48-1.187 0-.473-.16-.868-.48-1.188a1.61 1.61 0 00-1.187-.479c-.473 0-.868.16-1.188.48-.32.319-.479.714-.479 1.187 0 .472.16.868.48 1.187.319.32.714.48 1.187.48zm-.002 1.666c-.946 0-1.737-.319-2.375-.956-.638-.638-.957-1.428-.957-2.37 0-.924.32-1.711.957-2.363.637-.652 1.427-.978 2.37-.978.923 0 1.71.325 2.363.973.651.649.977 1.436.977 2.363 0 .945-.324 1.737-.973 2.374-.648.638-1.436.957-2.362.957zM20 13.333c.694 0 1.285-.236 1.77-.709.487-.472.73-1.07.73-1.791a2.41 2.41 0 00-.73-1.771 2.41 2.41 0 00-1.77-.73c-.722 0-1.32.244-1.792.73a2.447 2.447 0 00-.708 1.77c0 .723.236 1.32.708 1.792.473.473 1.07.709 1.792.709zm.002 1.666c-1.17 0-2.158-.4-2.962-1.202-.804-.802-1.207-1.786-1.207-2.954 0-1.148.401-2.131 1.203-2.95.801-.818 1.786-1.227 2.954-1.227 1.148 0 2.13.407 2.95 1.22.817.813 1.227 1.794 1.227 2.945 0 1.17-.407 2.157-1.22 2.962-.813.804-1.795 1.206-2.945 1.206zm-7.566 7.292c0 1.004.466 2.105 1.397 3.301.932 1.197 2.784 3.057 5.558 5.58l.609.545.673-.64c2.611-2.362 4.412-4.167 5.404-5.415.991-1.248 1.487-2.372 1.487-3.371 0-.89-.294-1.643-.884-2.261-.589-.619-1.316-.928-2.18-.928-.52 0-1.01.115-1.475.346a3.68 3.68 0 00-1.188.933l-1.712 2.054h-.26l-1.743-2.054a3.727 3.727 0 00-1.175-.933 3.15 3.15 0 00-1.447-.346c-.904 0-1.64.31-2.21.928-.57.618-.854 1.372-.854 2.261zm-1.667 0c0-1.259.463-2.383 1.388-3.372.925-.99 2.04-1.484 3.343-1.484.818 0 1.58.195 2.287.584a5.857 5.857 0 011.796 1.519l.417.48.417-.512a6.596 6.596 0 011.807-1.488 4.569 4.569 0 012.276-.583c1.282 0 2.391.498 3.327 1.493.936.995 1.404 2.116 1.404 3.363 0 1.301-.508 2.63-1.524 3.985-1.016 1.356-2.996 3.377-5.938 6.063L20 33.974l-1.705-1.539c-3.04-2.799-5.055-4.859-6.043-6.18-.989-1.32-1.483-2.641-1.483-3.964zm-2.436-7.292c.473 0 .868-.16 1.188-.479.32-.32.479-.715.479-1.187 0-.473-.16-.868-.48-1.188a1.607 1.607 0 00-1.187-.479c-.472 0-.868.16-1.187.48-.32.319-.48.714-.48 1.187 0 .472.16.868.48 1.187.32.32.715.48 1.187.48zm11.792 20v-1.666h13.208V22.692a.986.986 0 00-.304-.721.986.986 0 00-.722-.305h-3.762v-1.667h3.762c.741 0 1.375.264 1.902.791.527.527.791 1.161.791 1.902v12.307H20.125zM6.667 33.333h13.458v1.666H5V22.701c0-.752.258-1.39.774-1.915.516-.524 1.155-.787 1.918-.787h3.763v1.667H7.692a.967.967 0 00-.737.305 1.014 1.014 0 00-.288.72v10.642zM8.33 16.666c-.945 0-1.737-.319-2.374-.956C5.319 15.072 5 14.282 5 13.34c0-.924.319-1.711.956-2.363.638-.652 1.428-.978 2.37-.978a3.23 3.23 0 012.363.973 3.21 3.21 0 01.978 2.363c0 .945-.325 1.737-.973 2.374-.649.638-1.436.957-2.363.957z" fill="#2B2A29"/></g></svg>