<svg width="24" height="24" fill="none" xmlns="http://www.w3.org/2000/svg"><path d="M5 3.5h14A1.5 1.5 0 0120.5 5v14a1.5 1.5 0 01-1.5 1.5H5A1.5 1.5 0 013.5 19V5A1.5 1.5 0 015 3.5z" stroke="#2B2A29" stroke-linecap="round" stroke-linejoin="round"/><path d="M8.5 7.5a1 1 0 110 2 1 1 0 010-2z" stroke="#2B2A29" stroke-linecap="round" stroke-linejoin="round"/><mask id="a" fill="#fff"><path d="M21 15l-5-5L5 21"/></mask><path d="M20.293 15.707a1 1 0 001.414-1.414L21 15l-.707.707zM16 10l.707-.707a1 1 0 00-1.414 0L16 10zM4.293 20.293a1 1 0 101.414 1.414L5 21l-.707-.707zM21 15l.707-.707-5-5L16 10l-.707.707 5 5L21 15zm-5-5l-.707-.707-11 11L5 21l.707.707 11-11L16 10z" fill="#2B2A29" mask="url(#a)"/></svg>