<svg width="24" height="24" fill="none" xmlns="http://www.w3.org/2000/svg"><mask id="a" style="mask-type:alpha" maskUnits="userSpaceOnUse" x="0" y="0" width="24" height="24"><path fill="#D9D9D9" d="M0 0h24v24H0z"/></mask><g mask="url(#a)"><path d="M12 21.5a8.255 8.255 0 01-3.315-.67 8.608 8.608 0 01-2.696-1.818 8.607 8.607 0 01-1.82-2.697A8.255 8.255 0 013.5 13c0-1.18.223-2.284.67-3.315a8.607 8.607 0 011.819-2.696 8.607 8.607 0 012.696-1.82A8.256 8.256 0 0112 4.5c1.18 0 2.285.223 3.316.67a8.607 8.607 0 012.696 1.819 8.608 8.608 0 011.819 2.696c.446 1.03.67 2.136.67 3.315a8.26 8.26 0 01-.67 3.316 8.609 8.609 0 01-1.82 2.696 8.609 8.609 0 01-2.695 1.819A8.254 8.254 0 0112 21.5zm2.973-4.473l1.054-1.054-3.277-3.277V8h-1.5v5.304l3.723 3.723zM5.754 2.89l1.054 1.054-3.865 3.865-1.054-1.054L5.754 2.89zm12.492 0l3.866 3.865-1.054 1.054-3.866-3.865 1.054-1.054zM12 20c1.944 0 3.596-.68 4.958-2.042C18.319 16.596 19 14.944 19 13c0-1.943-.68-3.596-2.042-4.958C15.596 6.681 13.944 6 12 6c-1.943 0-3.596.68-4.958 2.042C5.681 9.404 5 11.057 5 13c0 1.944.68 3.596 2.042 4.958C8.404 19.319 10.057 20 12 20z" fill="#2B2A29"/></g></svg>