<svg width="28" height="31" fill="none" xmlns="http://www.w3.org/2000/svg"><path d="M17 0a3.5 3.5 0 013.5 3.5V6h7a.5.5 0 010 1H25v20.5a3.5 3.5 0 01-3.5 3.5h-15A3.5 3.5 0 013 27.5V7H.5a.5.5 0 010-1h7V3.5A3.5 3.5 0 0111 0h6zM4 27.5A2.5 2.5 0 006.5 30h15a2.5 2.5 0 002.5-2.5V7H4v20.5zm14.146-13.854a.5.5 0 11.707.707L14.707 18.5l4.146 4.146a.5.5 0 01-.707.707L14 19.207l-4.146 4.146a.5.5 0 01-.708-.707l4.147-4.146-4.147-4.146a.5.5 0 11.708-.707L14 17.793l4.146-4.146zM11 1a2.5 2.5 0 00-2.5 2.5V6h11V3.5A2.5 2.5 0 0017 1h-6z" fill="#2B2A29"/></svg>