<svg width="17" height="21" fill="none" xmlns="http://www.w3.org/2000/svg"><path d="M8.19 0c2.183 0 4.269.923 5.802 2.554 1.532 1.63 2.388 3.835 2.388 6.128 0 3.107-2.033 6.182-3.966 8.42a31.802 31.802 0 01-3.573 3.513c-.108.09-.193.16-.251.206l-.068.054-.017.014-.005.004h-.002v.002a.5.5 0 01-.616-.001l-.002-.002-.005-.004-.019-.014-.067-.055a29.156 29.156 0 01-1.137-.981 32.145 32.145 0 01-2.685-2.75C2.034 14.848 0 11.772 0 8.683 0 6.39.856 4.185 2.388 2.555 3.92.922 6.008 0 8.19 0zm0 1c-1.896 0-3.722.802-5.073 2.24C1.765 4.677 1 6.634 1 8.681c0 2.701 1.811 5.535 3.724 7.754a31.106 31.106 0 003.457 3.41l.01.009.01-.008a30.771 30.771 0 003.457-3.397c1.91-2.214 3.722-5.049 3.722-7.768 0-2.047-.764-4.004-2.116-5.443C11.913 1.802 10.087 1 8.19 1zm0 4a3.5 3.5 0 110 7 3.5 3.5 0 010-7zm0 1a2.5 2.5 0 100 5 2.5 2.5 0 000-5z" fill="#2B2A29"/></svg>