<svg width="164" height="56" fill="none" xmlns="http://www.w3.org/2000/svg"><path fill="#fff" d="M0 0h164v56H0z"/><g clip-path="url(#clip0_5286_17339)"><path fill="#fff" d="M16 10h132v36H16z"/><path d="M62.517 29.15c-.5.35-1.078.493-1.321.493h-.033c-.29 0-.4-.143-.4-.318 0-.383.722-.733 1.543-.986.566-.175 1.426-.46 1.86-.668-.322.428-1.222 1.194-1.65 1.479zm7.215-10.092c-.29-.143-.611-.253-1.144-.253-1.886 0-3.6 1.375-4.179 1.797-.867.635-2.044 1.628-3.023 2.484a.545.545 0 01-.164.24c-.02.032-.059.065-.079.09a.647.647 0 01-.15.26.779.779 0 01-.1.285c.007-.013.02-.02.033-.032.033-.032.066-.052.099-.09 0 0-6.965 8.755-8.286 10.435-2.425 3.126-4.823 5.765-7.642 7.497-2.99 1.83-6.486 2.737-10.534 2.737-6.275 0-11.532-2.737-11.985-8.01-.08-1.336.322-2.393.565-2.853.065-.13.111-.208.032-.24-.065-.033-.177.032-.276.175-.321.428-.82 1.589-.722 2.99.355 5.526 5.9 8.827 12.176 8.827 3.713 0 7.61-1.194 11.06-3.301 3.672-2.251 7.076-5.351 9.75-8.581 1.032-1.239 2.57-3.314 3.385-4.19 1.498-1.686 2.03-2.082 3.607-3.301 1.282-.986 2.425-1.544 3.069-1.544.611 0 .5.668.355 1.05-.178.494-.776 1.37-1.144 1.765-.63.272-1.353.46-2.352.733-.887.253-2.004.746-2.004 1.414 0 .59.644.7 1.077.7.927 0 2.675-.603 3.923-1.621 1.11-.954 2.077-2.212 2.221-3.23.099-.81-.322-1.271-1.11-1.35-1.032-.096-2.431.572-3.148 1.032-1.064.668-2.03 1.479-3.029 2.355l-.033-.033c1.498-2.114 2.924-3.904 4.455-5.526 1.177-1.271 2.642-2.6 4.291-2.6.467 0 .789.077.966.142.29.11.322.208.355.175.072-.078-.066-.285-.315-.428zm55.366 9.359c-.644 0-1.189.175-1.367.668-.138.415-.138.94.046 1.193.388 0 1.242-.382 1.676-.953.42-.525.243-.908-.355-.908zm21.385-1.939c-.078-.11-.289.032-.499.24-.401.35-.999.888-1.722 1.446a9.8 9.8 0 01-1.596 1.05c-.355.189-.644.254-.822.111-.144-.11-.111-.415.112-.778.243-.415.71-1.05 1.314-1.784.723-.92 1.255-1.479 1.899-2.25.421-.493.066-.571-.545-.571-.532 0-.743.175-1.032.395-1.13.876-2.142 1.752-3.857 3.055-1.097.843-1.886 1.414-2.674 1.83-.355.187-.677.22-.822.077-.098-.11-.098-.35.033-.636.191-.382.756-1.16 1.321-1.893.723-.889 1.399-1.693 1.859-2.186.434-.46.368-.558-.387-.558-.677.033-.887.175-1.643.876-.999.953-2.031 2.147-2.602 2.95-.322.429-.578.954-.611 1.337-.033.636.433.986 1.143.986h.033c1.078 0 2.352-.844 3.818-1.94.933-.7 2.142-1.653 2.852-2.211l.032.032c-.598.603-1.281 1.271-1.675 1.83-.322.46-.565.953-.565 1.445 0 .526.387.844 1.097.844 1.189 0 2.431-.908 3.075-1.401.855-.668 1.755-1.414 2.175-1.83.112-.116.388-.401.289-.466zm-10.935-1.582c.145-.668-.355-.986-1.097-.954-1.111.078-2.688 1.206-3.397 1.797-.776.635-1.774 1.589-2.175 1.971l-.066-.064c.276-.396.742-.986 1.064-1.414.355-.46.789-.986 1.4-1.654.421-.493.355-.59-.401-.558-.709 0-1.143.35-1.642.876a39.043 39.043 0 00-1.926 2.29 17.034 17.034 0 00-1.643 2.464c-.289.493-.032.557.421.557h.046c.388 0 .677-.064.926-.304 1.4-1.343 2.642-2.536 3.674-3.412.933-.81 1.642-1.336 2.254-1.654.243-.142.644-.318.854-.207.144.065.177.24.066.447-.276.46-.743.954-.454 1.239.598.577 1.952-.649 2.096-1.42zm-11.735 1.549c-.112-.11-.256.033-.565.318-.579.526-.901.798-1.643 1.401-.611.493-1.222.876-1.577 1.05-.355.189-.677.254-.854.111-.145-.143-.112-.383.111-.778.211-.35.644-.986 1.242-1.719a49.01 49.01 0 011.932-2.25c.421-.46.355-.558-.401-.558-.677 0-1.136.142-2.07.778-.696.448-1.662 1.226-2.221 1.693-.078.052-.151.13-.243.194-.453.428-.821.746-1.57 1.337-.578.46-1.176.843-1.498 1.018-.388.22-.855.46-1.21.395-.578-.11-.4-.778-.256-1.381.388-1.576-.033-1.972-.21-2.244.21-.033.532-.078 1.11-.285 1.065-.383 1.919-.986 2.596-1.369a4.413 4.413 0 011.143-.46c.71-.208.888-.844.598-1.064-.308-.24-.782-.065-1.209.253-.243.175-.598.493-.926.778-.611.525-1.4 1.258-2.32 1.622-.355.13-.966.272-1.209.24-.256-.208-.644-.318-.966-.318-.355 0-.644.11-.71.253-.078.13.388.382 1.354.382 0 .428-1.078 1.654-1.11 2.99-.033.986.611 1.336 1.288 1.336h.032c1.111 0 2.432-.908 3.174-1.479.756-.544 1.433-1.167 1.899-1.595.02-.02.046-.032.066-.052a22.23 22.23 0 011.281-1.05c.546-.429 1.288-.954 1.531-1.064-.565.493-1.951 1.939-2.667 3.029-.29.415-.546.875-.546 1.336 0 .558.322.908 1.078.908 1.176 0 2.385-.876 3.095-1.434.723-.57 1.61-1.336 2.043-1.764.119-.11.506-.46.408-.558zm1.563-7.179c-.677 0-1.209.142-1.426.668-.178.46-.145.985.033 1.193.355 0 1.242-.383 1.675-.94.434-.539.211-.921-.256-.921h-.026z" fill="#2B2A29"/><path d="M91.54 27.989c-.966.875-2.32 1.653-3.003 1.653-.256 0-.434-.11-.466-.35-.066-.46.532-1.368 1.997-2.782 1.288-1.271 2.57-2.212 3.292-2.212.388 0 .677.175.644.623-.039.57-1.32 2.082-2.464 3.068zm-10.25 0c-.954.875-2.32 1.653-3.004 1.653-.243 0-.42-.11-.453-.35-.079-.46.532-1.368 2.004-2.782 1.275-1.271 2.563-2.212 3.28-2.212.4 0 .676.175.643.623-.04.57-1.327 2.082-2.47 3.068zm36.278-11.214c1.853-2.18 3.568-3.872 4.745-5.033.755-.7 1.715-1.401 2.319-1.401.388 0 .644.208.598.668-.131 1.544-3.312 4.261-6.742 7.277-1.597 1.446-2.996 2.29-6.387 5.208 2.819-3.625 3.825-4.786 5.467-6.72zm1.242 1.894c3.608-2.958 7.031-5.766 7.32-7.453.099-.635-.177-1.27-1.11-1.27-1.032 0-2.031.713-3.029 1.413-1.86 1.271-6.21 5.766-8.286 8.12-1.637 1.79-3.135 3.697-4.357 5.273-.782.668-2.136 1.83-2.28 1.972l-.066.065-.013.013c-.388.35-.789.668-1.209.668-.532 0-.966-.428-.677-1.382.177-.59.854-1.193 1.354-1.608.387-.318.354-.46.256-.493-.191-.078-.644-.078-.822-.045-.223.045-.499.142-1.044.492-.598.396-1.177.857-1.742 1.304-.933.746-1.787 1.59-2.175 1.972l-.079-.065c.29-.383.789-1.018 1.078-1.414.467-.636.743-1.083.743-1.511 0-.383-.211-.778-.887-.778-.756 0-1.466.428-2.432 1.16-.61.48-1.353 1.168-1.787 1.564-.013.012-.02.012-.02.019-.4.35-.966.843-1.721 1.446-.566.46-1.242.908-1.597 1.084-.29.142-.644.285-.822.142-.144-.097-.144-.383.099-.81.322-.558.788-1.162 1.255-1.72.743-.92 1.531-1.796 1.998-2.321.355-.428.289-.603-.467-.57-.565 0-1.176.46-2.03 1.348.21-.603-.033-1.239-.756-1.349-.92-.13-2.175.285-3.568.986-.677.363-1.288.746-1.643.986-.223.162-.558.415-.788.61a3.205 3.205 0 00-.21.162c-.388.35-.967.843-1.716 1.446-.565.46-1.255.908-1.61 1.083-.276.143-.637.285-.821.143-.132-.098-.132-.383.112-.811.322-.558 1.853-2.64 2.963-4.034 2.07-2.601 3.28-4.047 4.469-5.383 1.32-1.505 3.094-3.444 4.067-4.352-.033-.143-.177-.253-.532-.253-.5 0-.933.207-1.321.603a56.101 56.101 0 00-4.251 4.352c-1.82 2.075-3.457 4.08-4.567 5.668h-.033c.144-.525-.112-1.096-.789-1.206-.999-.13-2.32.363-3.568.986-.723.363-1.288.746-1.643.986-.355.253-.9.668-.998.778-.08.078-.152.143-.224.208a9.122 9.122 0 01-1.032.81c-.532.396-.887.526-1.209.604-.144.032-.532.064-.676 0 1.11-.986 1.931-2.005 2.03-2.848.079-.538-.099-.953-.42-1.239-.145-.142-.401-.285-.5-.207-.112.065.033.24.033.558 0 .175 0 .57-.112.81-.243.11-.742.396-1.143.921-.454.59-.598 1.129-.638 1.48-1.11 1.192-2.53 2.146-3.318 2.146-.4 0-.545-.253-.5-.603.066-.7 1-2.07 2.07-3.094 1-.94 1.709-1.544 2.576-1.926.276-.143.388-.143.388-.22 0-.143-.289-.143-.532-.143-.756.045-1.86.395-2.82.888-.82.415-1.61 1.05-2.214 1.719-.545.603-.933 1.336-.998 2.186-.046 1.018.637 1.543 1.74 1.543 1.466 0 3.148-1.018 4.068-1.732.224.143.644.143.966.078.355-.078.789-.253 1.354-.635.467-.318.821-.636 1.143-.921.066-.052.132-.11.191-.163l.02.033c-.644.733-.92 1.29-1 1.829-.144 1.128.678 1.433 1.466 1.4 1.354-.064 2.997-1.225 3.93-2.036l.033.033c-.322.382-.533.875-.5 1.271.033.415.355.733 1.032.733 1.176 0 2.359-.843 3.082-1.401a40.276 40.276 0 001.984-1.693c.079-.052.138-.11.19-.162l.034.033c-.644.732-.934 1.29-1 1.828-.144 1.129.678 1.434 1.466 1.401 1.354-.064 2.996-1.225 3.923-2.036l.033.032c-.322.383-.532.876-.5 1.271.046.416.355.733 1.032.733 1.19 0 2.366-.843 3.076-1.4a48.636 48.636 0 001.997-1.693c.013 0 .013-.013.026-.02.5-.447 1.052-.927 1.512-1.31.433-.35.966-.733 1.386-.94.224-.11.434-.175.532-.046.079.11 0 .286-.243.603-.387.493-1.031 1.304-1.432 1.83a28.569 28.569 0 00-1.564 2.354c-.29.493-.033.57.466.57.388 0 .677-.077.927-.317 1.4-1.336 2.576-2.426 3.608-3.302.289-.253.998-.778 1.531-1.16-.322.732-.322 1.478-.066 1.86.322.494.854.669 1.531.637.499-.033.999-.383 1.321-.701.052-.065.111-.11.151-.162.013 0 .013-.013.02-.013.387-.363.821-.746 1.353-1.206v.045c-.433.525-.788.986-1.064 1.4-.611.877-1.223 1.83-1.466 2.355-.21.428-.079.571.467.571h.033c.466 0 .887-.175 1.209-.636.499-.7 3.108-4.397 3.712-5.065 2.103-1.887 5.106-4.002 7.281-5.76z" fill="#2B2A29"/><path d="M20.337 29.993c-.611.033-1.176-.11-1.143-.57.033-.636 1.353-1.226 2.852-1.272.755-.032 1.498.11 2.043.253-.933.876-2.641 1.59-3.752 1.59zm5.06-12.453c0-1.478 1.722-2.853 4.75-2.853 2.498 0 4.246.888 5.245 1.556-1.676.668-4.035 2.608-5.678 4.638-2.306-.493-4.317-1.687-4.317-3.34zm11.289.208c.5.875.467 1.226.532 1.226.08 0 .178-.383-.144-1.29a4.62 4.62 0 00-.677-1.207c.677-.415 1.998-.843 2.819-.843 1.498-.033 2.431.745 2.175 1.9-.5 2.069-3.779 3.301-5.888 3.587-1.288.175-2.707.207-3.785.064 1.321-1.861 2.753-3.658 4.14-4.43.217.182.618.61.828.993zm24.293 6.136v-.014c.27-.33.454-.668.664-1.018-.099.085-.197.175-.296.26-.02.02-.059.052-.079.078-.663.57-1.209 1.063-1.491 1.303-.677.636-1.643 1.511-2.418 2.218-.112.098-.21.188-.29.26-.446.402-1.077.985-1.74 1.453-.934.668-2.044 1.16-2.504 1.16-.434 0-.467-.35-.08-1.05.178-.35.612-.986 1.032-1.511.224-.286.611-.746.822-.986.788-.889 1.643-1.732 2.609-1.732.466 0 1.11.143 1.32.746.178-1.271-.644-1.479-1.209-1.479-1.11 0-2.431 1.687-2.898 2.244l-.032-.032c.532-1.336-.244-1.907-1.072-1.907-.9 0-1.853.713-2.464 1.174-.5.363-1.209.999-1.767 1.498a1.823 1.823 0 00-.165.156c-.387.35-.998.875-1.708 1.433-.565.46-1.242.889-1.61 1.064-.355.175-.63.24-.808.097-.145-.097-.112-.415.098-.765.257-.428.71-1.064 1.321-1.797.71-.92 1.255-1.478 1.886-2.257.434-.493.079-.558-.532-.558-.533 0-.743.175-1.032.383-1.143.876-2.142 1.764-3.85 3.061-1.111.843-1.886 1.401-2.682 1.83-.354.174-.676.207-.821.064-.112-.097-.112-.35.033-.635.177-.383.755-1.161 1.32-1.894.71-.876 1.387-1.687 1.86-2.18.434-.46.355-.57-.387-.57-.677 0-1.144.142-2.064.778-.867.558-2.142 1.622-2.543 1.972-2.175 1.861-3.745 2.53-5.809 2.53-.755 0-2.398-.319-3.686-.636-1.064-.273-2.208-.558-2.674-.623 2.286-1.518 3.962-3.126 6.321-6.512 1.11.143 2.72.143 3.93 0 2.096-.253 6.498-1.414 6.952-3.697.322-1.576-1.275-2.523-3.207-2.451-1.032 0-2.32.305-3.207.668-1.32-1.064-3.029-1.836-5.677-1.836-3.351 0-5.244 1.66-5.244 3.45 0 1.79 2.064 3.062 4.422 3.555-2.063 2.666-2.963 4.923-4.934 6.72-.42-.079-1.13-.143-1.676-.143-2.063-.033-5.244.635-5.31 1.796-.046.558.71.843 2.136.81 2.175-.019 3.95-1.115 4.804-1.783.466.11 1.787.7 2.963 1.161.999.383 2.497.7 3.857.7 2.32 0 3.575-1.018 6.177-3.404.355-.318.756-.636 1.288-1.064.532-.415 1.288-.954 1.531-1.05a18.72 18.72 0 00-2.53 2.814c-.322.415-.644.953-.676 1.446-.033.623.42.986 1.176.986 1.064 0 2.352-.856 3.824-1.94.92-.7 2.142-1.653 2.852-2.217l.033.045c-.611.59-1.288 1.258-1.676 1.83-.322.447-.565.94-.565 1.433 0 .538.388.856 1.098.856 1.176 0 2.43-.921 3.075-1.414.755-.59 1.557-1.245 2.024-1.686.006-.014.032-.02.046-.033a40.98 40.98 0 011.675-1.446c.822-.668 1.61-1.129 2.03-1.129.434 0 .323.46.112.843-.256.46-.71 1.129-1.386 1.94-.644.778-1.932 2.25-3.253 3.411-1.42 1.258-3.358 2.497-5.789 2.497-.887 0-1.774-.318-2.175-.92-.276-.416-.21-.701-.309-.669-.144.033-.111.46 0 .921.276 1.018 1.315 1.621 2.353 1.621h.032c2.603 0 4.857-2.042 6.145-3.203a30.493 30.493 0 002.819-2.952l.032.033c-.9 1.336-.466 2.186.598 2.186 1.4 0 2.997-1.032 3.575-1.447.742-.57 1.465-1.238 1.925-1.654v-.013c.565-.48 1.913-1.692 3.51-3.139.006-.013.019-.026.045-.038z" fill="#E22429"/></g><defs><clipPath id="clip0_5286_17339"><path fill="#fff" transform="translate(16 10)" d="M0 0h132v36H0z"/></clipPath></defs></svg>