<svg width="142" height="44" fill="none" xmlns="http://www.w3.org/2000/svg"><path d="M49.48 23.836c-.55.434-1.188.611-1.456.611h-.036c-.318 0-.441-.177-.441-.394 0-.475.796-.91 1.7-1.224.623-.217 1.572-.571 2.05-.829-.355.532-1.347 1.481-1.818 1.836zm7.948-12.526c-.319-.177-.674-.314-1.26-.314-2.078 0-3.967 1.707-4.604 2.23-.955.789-2.251 2.02-3.33 3.083a.686.686 0 01-.18.298c-.022.04-.066.08-.087.113a.83.83 0 01-.167.322c-.014.12-.05.241-.109.354.008-.016.022-.024.037-.04.036-.04.072-.065.108-.113 0 0-7.673 10.867-9.128 12.952-2.671 3.88-5.313 7.156-8.419 9.305-3.293 2.27-7.144 3.397-11.604 3.397-6.913 0-12.704-3.397-13.203-9.941-.087-1.658.355-2.97.622-3.542.073-.161.123-.258.037-.298-.073-.04-.196.04-.304.218-.355.53-.905 1.972-.797 3.71C5.431 39.903 11.54 44 18.454 44c4.09 0 8.382-1.481 12.183-4.097 4.046-2.794 7.796-6.641 10.742-10.65 1.137-1.538 2.83-4.113 3.728-5.2 1.65-2.093 2.237-2.584 3.974-4.097 1.412-1.224 2.671-1.916 3.38-1.916.674 0 .55.829.392 1.304-.196.612-.855 1.698-1.26 2.19-.695.338-1.491.57-2.591.909-.978.314-2.208.926-2.208 1.755 0 .732.71.87 1.187.87 1.02 0 2.946-.75 4.322-2.013 1.223-1.183 2.287-2.745 2.446-4.009.109-1.006-.355-1.578-1.223-1.674-1.137-.121-2.679.708-3.468 1.28-1.172.829-2.236 1.835-3.337 2.922l-.036-.04c1.65-2.625 3.221-4.846 4.908-6.859 1.296-1.578 2.91-3.228 4.727-3.228.514 0 .869.097 1.064.177.319.137.355.258.391.218.08-.097-.072-.355-.347-.532zm60.994 11.616c-.71 0-1.311.217-1.506.829-.152.515-.152 1.167.051 1.481.427 0 1.368-.475 1.846-1.183.463-.652.267-1.127-.391-1.127zm23.555-2.407c-.087-.137-.318.04-.55.298-.442.434-1.1 1.102-1.897 1.794-.622.572-1.368 1.087-1.759 1.305-.391.233-.709.314-.905.136-.159-.136-.123-.515.123-.965.268-.516.782-1.305 1.448-2.214.797-1.143 1.383-1.835 2.092-2.793.464-.612.073-.709-.601-.709-.586 0-.818.218-1.136.491-1.245 1.087-2.36 2.174-4.249 3.792-1.209 1.046-2.078 1.755-2.946 2.27-.391.233-.746.273-.905.096-.109-.137-.109-.434.036-.789.21-.475.832-1.44 1.455-2.35.796-1.103 1.542-2.101 2.048-2.713.478-.571.406-.692-.427-.692-.745.04-.977.217-1.809 1.087-1.101 1.183-2.237 2.664-2.867 3.662-.355.531-.637 1.183-.673 1.658-.036.79.478 1.224 1.259 1.224h.037c1.187 0 2.591-1.046 4.205-2.407 1.028-.87 2.36-2.053 3.142-2.745l.036.04c-.658.749-1.411 1.578-1.846 2.27-.354.572-.622 1.184-.622 1.796 0 .651.427 1.046 1.209 1.046 1.31 0 2.678-1.127 3.387-1.739.942-.829 1.933-1.755 2.397-2.27.123-.145.427-.499.318-.58zm-12.046-1.964c.159-.83-.391-1.224-1.209-1.183-1.223.096-2.96 1.497-3.742 2.23-.854.788-1.955 1.972-2.396 2.447l-.073-.08c.304-.492.818-1.225 1.173-1.756.391-.571.869-1.223 1.542-2.052.463-.612.391-.733-.442-.693-.781 0-1.259.435-1.809 1.087a47.563 47.563 0 00-2.121 2.841 21.522 21.522 0 00-1.81 3.06c-.318.611-.036.692.463.692h.051c.427 0 .746-.08 1.021-.379 1.542-1.666 2.91-3.147 4.046-4.234 1.028-1.006 1.81-1.658 2.483-2.052.268-.178.71-.395.941-.258.159.08.196.298.073.555-.304.572-.818 1.184-.5 1.538.659.716 2.15-.805 2.309-1.763zm-12.928 1.924c-.123-.137-.282.04-.622.394-.637.652-.992.99-1.81 1.739-.673.612-1.347 1.087-1.737 1.304-.391.233-.746.314-.942.137-.159-.177-.123-.475.124-.966.231-.435.709-1.224 1.368-2.133a58.366 58.366 0 012.128-2.794c.463-.571.391-.692-.442-.692-.745 0-1.252.177-2.28.966-.767.555-1.831 1.521-2.447 2.101-.087.064-.166.161-.267.241-.5.532-.905.926-1.731 1.659a12.806 12.806 0 01-1.65 1.264c-.427.273-.941.571-1.332.49-.637-.136-.442-.965-.282-1.714.427-1.956-.036-2.447-.232-2.785.232-.04.586-.097 1.223-.354 1.173-.475 2.114-1.224 2.86-1.699.478-.314.868-.45 1.259-.571.782-.258.978-1.047.659-1.32-.34-.298-.861-.081-1.332.313-.268.218-.659.612-1.021.966-.673.652-1.541 1.562-2.555 2.013-.391.16-1.064.338-1.332.298-.282-.258-.709-.395-1.064-.395-.391 0-.709.137-.782.314-.087.161.427.475 1.492.475 0 .531-1.188 2.053-1.224 3.71-.036 1.224.673 1.66 1.419 1.66h.036c1.224 0 2.679-1.128 3.497-1.836.832-.676 1.578-1.45 2.092-1.98.021-.024.05-.04.072-.065.391-.394.818-.789 1.411-1.304.601-.531 1.419-1.183 1.687-1.32-.622.612-2.15 2.407-2.939 3.76-.318.514-.601 1.086-.601 1.657 0 .693.355 1.127 1.188 1.127 1.295 0 2.627-1.086 3.409-1.779.796-.708 1.773-1.658 2.251-2.19.131-.136.558-.57.449-.691zm1.723-8.911c-.746 0-1.332.177-1.571.829-.195.571-.159 1.223.036 1.48.391 0 1.368-.474 1.846-1.166.478-.668.232-1.143-.282-1.143h-.029z" fill="#2B2A29"/><path d="M81.453 22.394c-1.064 1.087-2.555 2.053-3.308 2.053-.283 0-.478-.137-.514-.435-.073-.571.586-1.698 2.2-3.453 1.42-1.578 2.83-2.745 3.627-2.745.427 0 .746.217.71.773-.044.708-1.456 2.584-2.715 3.807zm-11.293 0c-1.05 1.087-2.555 2.053-3.308 2.053-.268 0-.463-.137-.5-.435-.086-.571.587-1.698 2.209-3.453 1.404-1.578 2.823-2.745 3.612-2.745.441 0 .745.217.71.773-.044.708-1.463 2.584-2.723 3.807zm39.966-13.918c2.041-2.704 3.931-4.805 5.226-6.246.833-.87 1.89-1.739 2.556-1.739.427 0 .709.258.658.83-.144 1.915-3.648 5.288-7.427 9.03-1.759 1.796-3.301 2.842-7.036 6.465 3.106-4.5 4.213-5.94 6.023-8.34zm1.368 2.35c3.974-3.67 7.746-7.155 8.064-9.248.109-.79-.195-1.578-1.223-1.578-1.137 0-2.237.885-3.337 1.755-2.049 1.578-6.841 7.156-9.129 10.078-1.802 2.222-3.452 4.588-4.799 6.544-.861.83-2.352 2.27-2.512 2.448l-.072.08-.015.016c-.427.435-.868.83-1.332.83-.586 0-1.064-.532-.745-1.715.195-.733.94-1.482 1.491-1.997.427-.394.39-.571.282-.611-.21-.097-.71-.097-.904-.057-.247.057-.55.177-1.151.612-.66.491-1.296 1.063-1.919 1.618-1.028.926-1.969 1.972-2.396 2.447l-.087-.08c.319-.475.869-1.264 1.188-1.755.513-.79.817-1.345.817-1.876 0-.475-.231-.966-.977-.966-.832 0-1.614.532-2.678 1.441-.673.596-1.491 1.449-1.97 1.94-.014.016-.02.016-.02.024a54.67 54.67 0 01-1.897 1.795c-.623.572-1.368 1.127-1.76 1.345-.318.177-.709.354-.904.177-.16-.121-.16-.475.108-1.006.355-.693.869-1.441 1.383-2.134.818-1.143 1.687-2.23 2.2-2.881.391-.532.319-.75-.513-.709-.623 0-1.296.572-2.237 1.675.231-.75-.036-1.538-.833-1.675-1.013-.16-2.396.354-3.93 1.224a21.73 21.73 0 00-1.81 1.223c-.246.202-.615.515-.869.757-.072.056-.144.12-.231.201a47.526 47.526 0 01-1.89 1.795c-.622.572-1.382 1.127-1.773 1.345-.304.177-.702.354-.905.177-.145-.121-.145-.475.123-1.007.355-.692 2.041-3.276 3.265-5.006 2.28-3.228 3.612-5.023 4.922-6.682C81.974 9.523 83.93 7.116 85 5.99c-.035-.177-.194-.314-.585-.314-.55 0-1.028.258-1.455.749a66.54 66.54 0 00-4.684 5.401c-2.005 2.576-3.808 5.063-5.03 7.035h-.037c.16-.652-.123-1.36-.869-1.497-1.1-.16-2.555.45-3.93 1.224-.797.45-1.42.925-1.81 1.223-.391.314-.992.83-1.1.966-.087.097-.167.177-.247.258-.369.37-.673.652-1.136 1.006-.586.491-.977.652-1.332.749-.16.04-.586.08-.746 0 1.224-1.224 2.129-2.488 2.237-3.534.087-.668-.108-1.183-.463-1.538-.16-.177-.442-.354-.55-.257-.123.08.036.298.036.692 0 .217 0 .708-.123 1.006a3.538 3.538 0 00-1.26 1.143c-.5.733-.658 1.4-.702 1.836-1.223 1.48-2.787 2.664-3.655 2.664-.442 0-.601-.314-.55-.749.072-.869 1.1-2.567 2.28-3.84 1.1-1.166 1.882-1.915 2.837-2.39.304-.177.427-.177.427-.274 0-.177-.318-.177-.586-.177-.833.057-2.049.491-3.105 1.103-.905.515-1.774 1.304-2.44 2.133-.6.749-1.028 1.658-1.1 2.713-.05 1.264.702 1.916 1.918 1.916 1.614 0 3.467-1.264 4.48-2.15.247.178.71.178 1.065.097.39-.096.869-.314 1.491-.789.514-.394.905-.789 1.26-1.143.072-.064.145-.137.21-.201l.021.04c-.709.91-1.013 1.602-1.1 2.27-.16 1.4.746 1.78 1.614 1.739 1.492-.08 3.301-1.521 4.33-2.528l.035.04c-.354.476-.586 1.087-.55 1.578.036.515.391.91 1.137.91 1.295 0 2.598-1.047 3.395-1.739a46.233 46.233 0 002.186-2.1c.087-.065.152-.138.21-.202l.036.04c-.71.91-1.028 1.602-1.1 2.27-.16 1.4.745 1.78 1.614 1.739 1.491-.08 3.3-1.521 4.322-2.528l.036.04c-.355.476-.587 1.087-.55 1.578.05.515.39.91 1.136.91 1.31 0 2.606-1.046 3.388-1.739a55.667 55.667 0 002.2-2.1c.015 0 .015-.017.03-.025a66.328 66.328 0 011.664-1.626c.478-.435 1.064-.91 1.528-1.167.246-.137.477-.217.586-.056.087.136 0 .354-.268.748-.427.612-1.136 1.618-1.578 2.27a36.143 36.143 0 00-1.723 2.922c-.318.612-.036.709.514.709.427 0 .746-.097 1.02-.395 1.543-1.658 2.838-3.01 3.975-4.097.319-.314 1.1-.966 1.687-1.441-.355.91-.355 1.835-.073 2.31.355.612.941.83 1.687.79.55-.041 1.1-.476 1.455-.87.058-.08.123-.137.166-.201.015 0 .015-.017.022-.017.427-.45.905-.925 1.491-1.497v.056a21.648 21.648 0 00-1.172 1.74c-.674 1.086-1.347 2.27-1.615 2.921-.231.532-.087.709.514.709h.037c.513 0 .977-.218 1.331-.79.55-.869 3.424-5.457 4.09-6.286 2.317-2.343 5.625-4.967 8.021-7.148z" fill="#2B2A29"/><path d="M3.014 24.881c-.674.04-1.296-.136-1.26-.708.036-.789 1.491-1.521 3.142-1.578.832-.04 1.65.137 2.25.314-1.027 1.087-2.91 1.973-4.132 1.973zM8.587 9.426c0-1.835 1.897-3.542 5.234-3.542a9.457 9.457 0 015.777 1.932c-1.846.83-4.445 3.236-6.255 5.756-2.54-.612-4.756-2.093-4.756-4.146zm12.437.258c.55 1.086.514 1.521.586 1.521.087 0 .195-.475-.16-1.602a5.966 5.966 0 00-.745-1.497c.746-.515 2.2-1.047 3.106-1.047 1.65-.04 2.678.926 2.396 2.359-.55 2.568-4.163 4.097-6.486 4.452-1.42.217-2.983.257-4.17.08 1.455-2.31 3.033-4.54 4.56-5.498.24.225.681.757.913 1.232zm26.762 7.615v-.016c.296-.411.499-.83.73-1.264-.108.104-.216.217-.325.322-.022.024-.065.064-.087.096-.731.709-1.332 1.32-1.643 1.618-.746.79-1.81 1.876-2.664 2.753-.123.121-.232.234-.319.322-.492.5-1.187 1.224-1.918 1.803-1.028.83-2.251 1.441-2.758 1.441-.478 0-.514-.434-.087-1.304.196-.434.673-1.223 1.137-1.875.246-.355.673-.926.905-1.224.868-1.103 1.81-2.15 2.873-2.15.514 0 1.224.178 1.456.927.195-1.578-.71-1.836-1.332-1.836-1.224 0-2.679 2.093-3.193 2.786l-.036-.04c.586-1.659-.268-2.367-1.18-2.367-.992 0-2.041.885-2.714 1.457-.55.45-1.332 1.24-1.948 1.86-.058.055-.123.12-.18.192-.428.435-1.1 1.087-1.883 1.78-.622.57-1.368 1.102-1.773 1.32-.391.217-.695.297-.89.12-.16-.12-.124-.515.108-.95.282-.531.782-1.32 1.455-2.23.782-1.142 1.383-1.835 2.077-2.8.478-.613.087-.693-.586-.693-.586 0-.818.217-1.136.475-1.26 1.087-2.36 2.19-4.242 3.8-1.224 1.046-2.078 1.738-2.954 2.27-.39.217-.745.257-.905.08-.123-.12-.123-.435.037-.789.195-.475.832-1.44 1.455-2.35.781-1.087 1.527-2.093 2.048-2.705.478-.572.391-.709-.427-.709-.745 0-1.26.177-2.273.966-.955.693-2.36 2.013-2.801 2.447-2.396 2.31-4.126 3.14-6.4 3.14-.832 0-2.642-.395-4.06-.789-1.173-.338-2.433-.692-2.947-.773 2.52-1.883 4.365-3.88 6.964-8.082 1.223.177 2.997.177 4.329 0 2.31-.314 7.16-1.755 7.659-4.588.354-1.956-1.405-3.131-3.533-3.043-1.136 0-2.555.379-3.532.83-1.455-1.32-3.337-2.279-6.255-2.279-3.692 0-5.776 2.061-5.776 4.283 0 2.221 2.273 3.8 4.871 4.41-2.273 3.31-3.264 6.11-5.436 8.34a10.48 10.48 0 00-1.846-.177c-2.273-.04-5.776.79-5.849 2.23-.05.692.782 1.047 2.353 1.006 2.396-.024 4.35-1.384 5.291-2.213.514.137 1.97.869 3.265 1.44 1.1.476 2.75.87 4.25.87 2.554 0 3.937-1.264 6.804-4.226.39-.395.832-.79 1.419-1.32.586-.515 1.418-1.184 1.686-1.304-1.223 1.263-2.005 2.31-2.787 3.493-.355.515-.71 1.184-.745 1.795-.037.773.463 1.224 1.295 1.224 1.173 0 2.592-1.063 4.213-2.407a227.85 227.85 0 003.142-2.753l.036.056c-.673.733-1.419 1.562-1.846 2.27-.354.556-.622 1.168-.622 1.78 0 .667.427 1.062 1.209 1.062 1.295 0 2.678-1.143 3.387-1.755.833-.733 1.716-1.546 2.23-2.093.007-.016.036-.024.05-.04a47.16 47.16 0 011.846-1.795c.905-.83 1.774-1.4 2.237-1.4.478 0 .355.57.123 1.046-.282.571-.781 1.4-1.527 2.406-.71.966-2.128 2.794-3.583 4.235-1.564 1.561-3.7 3.099-6.378 3.099-.977 0-1.954-.395-2.396-1.143-.304-.516-.231-.87-.34-.83-.16.04-.123.572 0 1.144.304 1.263 1.448 2.012 2.592 2.012h.036c2.866 0 5.35-2.536 6.768-3.976 1.368-1.401 2.353-2.665 3.106-3.663l.036.04c-.992 1.658-.514 2.713.658 2.713 1.542 0 3.301-1.28 3.938-1.795.818-.709 1.615-1.538 2.121-2.053v-.016c.623-.596 2.107-2.101 3.866-3.896.007-.016.022-.032.05-.048z" fill="#E22429"/></svg>