<svg width="40" height="40" fill="none" xmlns="http://www.w3.org/2000/svg"><circle cx="20" cy="20" r="20" fill="#9F080C"/><path d="M21.614 8.754l2.244 3.23c.637-.973 1.206-1.774 1.7-2.621.29-.499-.11-.734-.53-.795-.48-.069-.904-.233-.723-.757.081-.242.566-.484.873-.491 1.957-.044 3.917-.055 5.874.009.842 0 .976.382.976.654-.043.542-.361.657-.851.733a1.704 1.704 0 00-1.516 1.563c-.061.569-.085 1.14-.072 1.713v19.054c0 1.456-.067 1.552-1.52 1.552-6.235 0-12.477-.022-18.707-.033-.68 0-1.266-.197-1.248-.968.018-.772.58-.981 1.275-.945a6.73 6.73 0 00.724-.027c1.546-.081 2.021-.566 2.025-2.134.007-5.84.007-11.681 0-17.525 0-1.574-.35-1.901-1.922-1.908-.3 0-.603-.011-.905 0-.68.029-1.152-.233-1.133-.958.018-.694.5-.846 1.132-.84 3.916.023 7.832.022 11.754.029.452 0 .919-.069 1.351.025.282.062.692.228.765.542.096.412-.208.535-.628.683-.232.082-.495.103-.938.215zm-4.67.448c-.772-.04-1.146.26-1.236.89a8.89 8.89 0 00-.089 1.264c-.007 3.94-.007 7.88 0 11.821v5.506c0 1.497.35 1.857 1.87 1.893 1.295.029 2.593.069 3.883-.016a9.412 9.412 0 002.537-.52c2.29-.823 4.074-3.901 3.617-6.176a2.07 2.07 0 00-.407.136c-1.407.823-2.945 1.006-4.532.916-3.955-.226-5.639-2.004-5.642-5.963V9.202zm6.614 4.548c-.646.945-1.157 1.682-1.657 2.428-.423.636-.47 1.167.4 1.478.161.056.436.204.389.423-.047.217-.318.307-.557.329-.69.047-1.385.048-2.078.028-.543-.014-.734.215-.75.75-.067 2.35 1.052 4.517 4.034 4.416.331-.01.662 0 .993-.009 2.687-.096 4.194-1.718 4.134-4.41-.011-.542-.181-.774-.738-.745-.783.04-1.568.065-2.35.038-.25-.009-.74-.09-.74-.309 0-.334.415-.397.638-.576a4.6 4.6 0 01.542-.318l-2.26-3.523zm4.741 4.027c0-2.757 0-5.207-.01-7.655-.024-.21-.1-.41-.221-.584-.474-.802-1.085-.844-1.606-.096-.624.882-1.251 1.764-1.808 2.692a1.151 1.151 0 00-.015 1.005 69.769 69.769 0 002.543 3.711c.246.325.642.542 1.117.927zm-8.888-.076c.505-.376.924-.564 1.161-.885a41.943 41.943 0 002.17-3.209 1.181 1.181 0 00-.043-1.024 46.968 46.968 0 00-2.145-3.12c-.18-.252-.414-.563-.82-.563-.408.076-.4.664-.406 1-.036 2.254-.02 4.516-.013 6.764.004.257.047.513.096 1.037z" fill="#fff"/></svg>